<mxfile host="app.diagrams.net" modified="2023-01-02T15:57:28.906Z" agent="5.0 (Windows)" version="20.7.4" etag="_U7EpIgaiT2tLIax-EVY" type="github">
  <diagram id="ZI57vvxGeYKEaFHkBOf0" name="Page-1">
    <mxGraphModel dx="1674" dy="782" grid="1" gridSize="10" guides="1" tooltips="1" connect="1" arrows="1" fold="1" page="1" pageScale="1" pageWidth="827" pageHeight="1169" math="0" shadow="0">
      <root>
        <mxCell id="0" />
        <mxCell id="1" parent="0" />
        <mxCell id="AeHJEFMsrwmH7Y3S1U4u-1" value="user" style="shape=umlActor;verticalLabelPosition=bottom;verticalAlign=top;html=1;outlineConnect=0;" vertex="1" parent="1">
          <mxGeometry x="20" y="140" width="30" height="60" as="geometry" />
        </mxCell>
        <mxCell id="AeHJEFMsrwmH7Y3S1U4u-2" value="admin" style="shape=umlActor;verticalLabelPosition=bottom;verticalAlign=top;html=1;outlineConnect=0;" vertex="1" parent="1">
          <mxGeometry x="370" y="263" width="30" height="60" as="geometry" />
        </mxCell>
        <mxCell id="AeHJEFMsrwmH7Y3S1U4u-3" value="inscription" style="ellipse;whiteSpace=wrap;html=1;" vertex="1" parent="1">
          <mxGeometry x="181" y="20" width="90" height="60" as="geometry" />
        </mxCell>
        <mxCell id="AeHJEFMsrwmH7Y3S1U4u-4" value="" style="endArrow=classic;html=1;rounded=0;entryX=-0.025;entryY=0.407;entryDx=0;entryDy=0;entryPerimeter=0;" edge="1" parent="1" source="AeHJEFMsrwmH7Y3S1U4u-1" target="AeHJEFMsrwmH7Y3S1U4u-3">
          <mxGeometry width="50" height="50" relative="1" as="geometry">
            <mxPoint x="90" y="44" as="sourcePoint" />
            <mxPoint x="180" y="60" as="targetPoint" />
          </mxGeometry>
        </mxCell>
        <mxCell id="AeHJEFMsrwmH7Y3S1U4u-5" value="" style="endArrow=classic;html=1;rounded=0;entryX=1;entryY=0.5;entryDx=0;entryDy=0;" edge="1" parent="1" source="AeHJEFMsrwmH7Y3S1U4u-2" target="AeHJEFMsrwmH7Y3S1U4u-8">
          <mxGeometry width="50" height="50" relative="1" as="geometry">
            <mxPoint x="90" y="180" as="sourcePoint" />
            <mxPoint x="440.0000000000059" y="50" as="targetPoint" />
          </mxGeometry>
        </mxCell>
        <mxCell id="AeHJEFMsrwmH7Y3S1U4u-6" value="login" style="ellipse;whiteSpace=wrap;html=1;" vertex="1" parent="1">
          <mxGeometry x="181" y="90" width="90" height="60" as="geometry" />
        </mxCell>
        <mxCell id="AeHJEFMsrwmH7Y3S1U4u-7" value="" style="endArrow=classic;html=1;rounded=0;entryX=0;entryY=0.5;entryDx=0;entryDy=0;" edge="1" parent="1" source="AeHJEFMsrwmH7Y3S1U4u-1" target="AeHJEFMsrwmH7Y3S1U4u-6">
          <mxGeometry width="50" height="50" relative="1" as="geometry">
            <mxPoint x="60" y="113.15686956521733" as="sourcePoint" />
            <mxPoint x="180" y="130" as="targetPoint" />
          </mxGeometry>
        </mxCell>
        <mxCell id="AeHJEFMsrwmH7Y3S1U4u-8" value="voir les stats" style="ellipse;whiteSpace=wrap;html=1;" vertex="1" parent="1">
          <mxGeometry x="181" y="240" width="90" height="60" as="geometry" />
        </mxCell>
        <mxCell id="AeHJEFMsrwmH7Y3S1U4u-9" value="" style="endArrow=classic;html=1;rounded=0;entryX=0;entryY=0.5;entryDx=0;entryDy=0;" edge="1" parent="1" source="AeHJEFMsrwmH7Y3S1U4u-1" target="AeHJEFMsrwmH7Y3S1U4u-10">
          <mxGeometry width="50" height="50" relative="1" as="geometry">
            <mxPoint x="60" y="130.34482758620686" as="sourcePoint" />
            <mxPoint x="130" y="240" as="targetPoint" />
          </mxGeometry>
        </mxCell>
        <mxCell id="AeHJEFMsrwmH7Y3S1U4u-10" value="faire une serie" style="ellipse;whiteSpace=wrap;html=1;" vertex="1" parent="1">
          <mxGeometry x="181" y="160" width="90" height="60" as="geometry" />
        </mxCell>
        <mxCell id="AeHJEFMsrwmH7Y3S1U4u-11" value="effacer" style="ellipse;whiteSpace=wrap;html=1;" vertex="1" parent="1">
          <mxGeometry x="181" y="310" width="90" height="60" as="geometry" />
        </mxCell>
        <mxCell id="AeHJEFMsrwmH7Y3S1U4u-12" value="" style="endArrow=classic;html=1;rounded=0;entryX=1.017;entryY=0.402;entryDx=0;entryDy=0;entryPerimeter=0;" edge="1" parent="1" source="AeHJEFMsrwmH7Y3S1U4u-2" target="AeHJEFMsrwmH7Y3S1U4u-11">
          <mxGeometry width="50" height="50" relative="1" as="geometry">
            <mxPoint x="469.9999999999998" y="131.1405176195351" as="sourcePoint" />
            <mxPoint x="279.8299999999999" y="272.38" as="targetPoint" />
          </mxGeometry>
        </mxCell>
        <mxCell id="AeHJEFMsrwmH7Y3S1U4u-13" value="" style="endArrow=classic;html=1;rounded=0;entryX=0;entryY=0.5;entryDx=0;entryDy=0;" edge="1" parent="1" source="AeHJEFMsrwmH7Y3S1U4u-1" target="AeHJEFMsrwmH7Y3S1U4u-8">
          <mxGeometry width="50" height="50" relative="1" as="geometry">
            <mxPoint x="50" y="140" as="sourcePoint" />
            <mxPoint x="191" y="200" as="targetPoint" />
          </mxGeometry>
        </mxCell>
      </root>
    </mxGraphModel>
  </diagram>
</mxfile>
